<?xml version="1.0" encoding="UTF-8"?>
<!DOCTYPE svg PUBLIC "-//W3C//DTD SVG 1.1//EN" "http://www.w3.org/Graphics/SVG/1.1/DTD/svg11.dtd">
<svg xmlns="http://www.w3.org/2000/svg" version="1.1" width="324px" height="324px" style="shape-rendering:geometricPrecision; text-rendering:geometricPrecision; image-rendering:optimizeQuality; fill-rule:evenodd; clip-rule:evenodd" xmlns:xlink="http://www.w3.org/1999/xlink">
<g><path style="opacity:1" fill="#172028" d="M 143.5,-0.5 C 155.5,-0.5 167.5,-0.5 179.5,-0.5C 249.63,10.447 295.796,49.7804 318,117.5C 320.179,126.237 322.012,134.903 323.5,143.5C 323.5,155.5 323.5,167.5 323.5,179.5C 318.6,218.588 301.934,251.588 273.5,278.5C 272.6,273.228 272.267,267.895 272.5,262.5C 268.702,261.517 264.702,261.183 260.5,261.5C 260.5,263.5 260.5,265.5 260.5,267.5C 257.794,267.425 255.127,267.092 252.5,266.5C 252.5,276.167 252.5,285.833 252.5,295.5C 252.027,296.906 251.027,297.573 249.5,297.5C 249.827,292.786 249.493,288.12 248.5,283.5C 246.958,284.747 245.458,284.747 244,283.5C 243.5,271.171 243.333,258.838 243.5,246.5C 243.5,244.5 243.5,242.5 243.5,240.5C 235.167,240.5 226.833,240.5 218.5,240.5C 218.5,257.5 218.5,274.5 218.5,291.5C 216.167,291.5 213.833,291.5 211.5,291.5C 211.5,298.167 211.5,304.833 211.5,311.5C 210.07,311.421 208.736,311.754 207.5,312.5C 206.548,310.955 206.215,309.288 206.5,307.5C 206.227,300.496 205.894,293.496 205.5,286.5C 204.918,282.287 203.918,278.287 202.5,274.5C 198.934,256.428 195.434,238.094 192,219.5C 184.63,218.156 177.464,215.989 170.5,213C 170.043,212.586 169.709,212.086 169.5,211.5C 172.086,210.52 174.753,210.187 177.5,210.5C 182.511,210.666 187.511,210.499 192.5,210C 196.465,209.892 200.132,209.059 203.5,207.5C 228.855,201.812 245.189,186.479 252.5,161.5C 193.837,160.5 135.17,160.167 76.5,160.5C 76.5,163.167 76.5,165.833 76.5,168.5C 93.7867,171.229 107.287,179.896 117,194.5C 119.219,198.271 120.885,202.271 122,206.5C 123.065,219.304 123.565,232.138 123.5,245C 123.032,267.166 122.698,289.332 122.5,311.5C 119.956,311.896 117.789,311.229 116,309.5C 115.5,301.507 115.334,293.507 115.5,285.5C 112.167,285.5 108.833,285.5 105.5,285.5C 105.5,288.5 105.5,291.5 105.5,294.5C 104.5,294.5 103.5,294.5 102.5,294.5C 102.5,274.5 102.5,254.5 102.5,234.5C 95.8333,234.5 89.1667,234.5 82.5,234.5C 82.5,240.833 82.5,247.167 82.5,253.5C 80.5,253.5 78.5,253.5 76.5,253.5C 76.5,268.167 76.5,282.833 76.5,297.5C 75.1667,297.5 73.8333,297.5 72.5,297.5C 72.5,289.833 72.5,282.167 72.5,274.5C 69.8333,274.5 67.1667,274.5 64.5,274.5C 64.5,267.833 64.5,261.167 64.5,254.5C 62.8333,254.5 61.1667,254.5 59.5,254.5C 59.6653,250.818 59.4986,247.152 59,243.5C 57.7083,242.209 56.5417,242.209 55.5,243.5C 54.5184,246.962 54.185,250.629 54.5,254.5C 52.8333,254.5 51.1667,254.5 49.5,254.5C 49.8254,262.352 49.492,270.018 48.5,277.5C 48.1583,276.662 47.4916,276.328 46.5,276.5C 19.5295,248.556 3.86287,215.222 -0.5,176.5C -0.5,166.833 -0.5,157.167 -0.5,147.5C 0.833333,147.167 0.833333,146.833 -0.5,146.5C -0.5,145.833 -0.5,145.167 -0.5,144.5C 0.816149,137.834 2.48282,131.167 4.5,124.5C 4.29069,123.914 3.95735,123.414 3.5,123C 4.78963,118.667 6.4563,114.5 8.5,110.5C 7.09773,109.158 7.43107,108.324 9.5,108C 9.16667,107.667 8.83333,107.333 8.5,107C 9.71224,104.577 11.0456,102.244 12.5,100C 12.1667,99.6667 11.8333,99.3333 11.5,99C 13.9171,97.8563 14.5838,96.1897 13.5,94C 16.1304,90.5334 18.2971,86.3668 20,81.5C 20.7504,80.8742 21.5838,80.3742 22.5,80C 22.1667,79.6667 21.8333,79.3333 21.5,79C 23.3035,75.6255 25.3035,73.1255 27.5,71.5C 30.759,66.1537 34.759,60.8203 39.5,55.5C 58.3166,32.5633 81.9833,16.3967 110.5,7C 121.477,3.77499 132.477,1.27499 143.5,-0.5 Z"/></g>
<g><path style="opacity:1" fill="#73797c" d="M 105.5,40.5 C 100.833,40.5 96.1667,40.5 91.5,40.5C 91.5,42.8333 91.5,45.1667 91.5,47.5C 90.5269,45.0521 90.1936,42.3854 90.5,39.5C 95.6946,39.1795 100.695,39.5128 105.5,40.5 Z"/></g>
<g><path style="opacity:1" fill="#f4f5f7" d="M 105.5,40.5 C 105.5,43.1667 105.5,45.8333 105.5,48.5C 100.637,48.8195 95.97,48.4861 91.5,47.5C 91.5,45.1667 91.5,42.8333 91.5,40.5C 96.1667,40.5 100.833,40.5 105.5,40.5 Z"/></g>
<g><path style="opacity:0.004" fill="#000000" d="M 39.5,55.5 C 38.8333,54.1667 38.8333,54.1667 39.5,55.5 Z"/></g>
<g><path style="opacity:1" fill="#f7f9fa" d="M 78.5,55.5 C 93.837,55.3334 109.17,55.5001 124.5,56C 127.078,58.2276 128.411,61.0609 128.5,64.5C 110.833,64.5 93.1667,64.5 75.5,64.5C 75.1289,60.9966 76.1289,57.9966 78.5,55.5 Z"/></g>
<g><path style="opacity:0.008" fill="#000000" d="M 27.5,71.5 C 26.8333,70.1667 26.8333,70.1667 27.5,71.5 Z"/></g>
<g><path style="opacity:1" fill="#fbfcfc" d="M 126.5,72.5 C 126.5,96.5 126.5,120.5 126.5,144.5C 167.833,144.5 209.167,144.5 250.5,144.5C 254.919,145.257 257.253,147.924 257.5,152.5C 197.167,152.5 136.833,152.5 76.5,152.5C 76.5,125.833 76.5,99.1667 76.5,72.5C 93.1667,72.5 109.833,72.5 126.5,72.5 Z"/></g>
<g><path style="opacity:1" fill="#222b33" d="M 100.5,79.5 C 106.176,79.3339 111.843,79.5006 117.5,80C 120.167,82.6667 120.167,85.3333 117.5,88C 111.833,88.6667 106.167,88.6667 100.5,88C 99.2138,85.1684 99.2138,82.3351 100.5,79.5 Z"/></g>
<g><path style="opacity:1" fill="#7f848a" d="M 126.5,72.5 C 127.498,95.9941 127.831,119.661 127.5,143.5C 168.67,143.168 209.67,143.501 250.5,144.5C 209.167,144.5 167.833,144.5 126.5,144.5C 126.5,120.5 126.5,96.5 126.5,72.5 Z"/></g>
<g><path style="opacity:0.994" fill="#fafbfb" d="M 203.5,207.5 C 194.703,208.598 186.036,209.598 177.5,210.5C 174.753,210.187 172.086,210.52 169.5,211.5C 169.709,212.086 170.043,212.586 170.5,213C 177.464,215.989 184.63,218.156 192,219.5C 195.434,238.094 198.934,256.428 202.5,274.5C 202.646,278.519 202.979,282.519 203.5,286.5C 204.146,293.641 205.146,300.641 206.5,307.5C 206.215,309.288 206.548,310.955 207.5,312.5C 208.736,311.754 210.07,311.421 211.5,311.5C 212.49,305.355 212.823,299.022 212.5,292.5C 214.735,292.795 216.735,292.461 218.5,291.5C 219.497,275.008 219.83,258.342 219.5,241.5C 227.167,241.5 234.833,241.5 242.5,241.5C 242.216,243.415 242.549,245.081 243.5,246.5C 243.333,258.838 243.5,271.171 244,283.5C 245.458,284.747 246.958,284.747 248.5,283.5C 249.493,288.12 249.827,292.786 249.5,297.5C 243.191,302.956 236.191,307.456 228.5,311C 212.451,316.747 196.118,320.914 179.5,323.5C 167.5,323.5 155.5,323.5 143.5,323.5C 117.852,320.173 94.1858,311.507 72.5,297.5C 73.8333,297.5 75.1667,297.5 76.5,297.5C 76.5,282.833 76.5,268.167 76.5,253.5C 78.5,253.5 80.5,253.5 82.5,253.5C 82.5,247.167 82.5,240.833 82.5,234.5C 89.1667,234.5 95.8333,234.5 102.5,234.5C 102.5,254.5 102.5,274.5 102.5,294.5C 103.5,294.5 104.5,294.5 105.5,294.5C 105.5,291.5 105.5,288.5 105.5,285.5C 108.833,285.5 112.167,285.5 115.5,285.5C 115.334,293.507 115.5,301.507 116,309.5C 117.789,311.229 119.956,311.896 122.5,311.5C 122.698,289.332 123.032,267.166 123.5,245C 123.565,232.138 123.065,219.304 122,206.5C 120.885,202.271 119.219,198.271 117,194.5C 107.287,179.896 93.7867,171.229 76.5,168.5C 76.5,165.833 76.5,163.167 76.5,160.5C 135.17,160.167 193.837,160.5 252.5,161.5C 245.189,186.479 228.855,201.812 203.5,207.5 Z"/></g>
<g><path style="opacity:1" fill="#585c61" d="M 203.5,207.5 C 200.132,209.059 196.465,209.892 192.5,210C 187.511,210.499 182.511,210.666 177.5,210.5C 186.036,209.598 194.703,208.598 203.5,207.5 Z"/></g>
<g><path style="opacity:0.963" fill="#f8f8f8" d="M 72.5,297.5 C 64.5014,292.521 56.8347,287.188 49.5,281.5C 48.2371,279.971 47.2371,278.305 46.5,276.5C 47.4916,276.328 48.1583,276.662 48.5,277.5C 48.7828,278.289 49.2828,278.956 50,279.5C 50.4997,271.507 50.6664,263.507 50.5,255.5C 52.1667,255.5 53.8333,255.5 55.5,255.5C 55.5,251.5 55.5,247.5 55.5,243.5C 56.5417,242.209 57.7083,242.209 59,243.5C 59.4986,247.152 59.6653,250.818 59.5,254.5C 61.1667,254.5 62.8333,254.5 64.5,254.5C 64.5,261.167 64.5,267.833 64.5,274.5C 67.1667,274.5 69.8333,274.5 72.5,274.5C 72.5,282.167 72.5,289.833 72.5,297.5 Z"/></g>
<g><path style="opacity:1" fill="#64696f" d="M 243.5,246.5 C 242.549,245.081 242.216,243.415 242.5,241.5C 234.833,241.5 227.167,241.5 219.5,241.5C 219.83,258.342 219.497,275.008 218.5,291.5C 218.5,274.5 218.5,257.5 218.5,240.5C 226.833,240.5 235.167,240.5 243.5,240.5C 243.5,242.5 243.5,244.5 243.5,246.5 Z"/></g>
<g><path style="opacity:1" fill="#aaadb1" d="M 272.5,262.5 C 268.833,262.5 265.167,262.5 261.5,262.5C 261.784,264.415 261.451,266.081 260.5,267.5C 260.5,265.5 260.5,263.5 260.5,261.5C 264.702,261.183 268.702,261.517 272.5,262.5 Z"/></g>
<g><path style="opacity:0.961" fill="#f8f9f9" d="M 272.5,262.5 C 272.267,267.895 272.6,273.228 273.5,278.5C 269.336,283.497 264.669,287.997 259.5,292C 257.114,293.193 254.78,294.36 252.5,295.5C 252.5,285.833 252.5,276.167 252.5,266.5C 255.127,267.092 257.794,267.425 260.5,267.5C 261.451,266.081 261.784,264.415 261.5,262.5C 265.167,262.5 268.833,262.5 272.5,262.5 Z"/></g>
<g><path style="opacity:1" fill="#8f9397" d="M 55.5,243.5 C 55.5,247.5 55.5,251.5 55.5,255.5C 53.8333,255.5 52.1667,255.5 50.5,255.5C 50.6664,263.507 50.4997,271.507 50,279.5C 49.2828,278.956 48.7828,278.289 48.5,277.5C 49.492,270.018 49.8254,262.352 49.5,254.5C 51.1667,254.5 52.8333,254.5 54.5,254.5C 54.185,250.629 54.5184,246.962 55.5,243.5 Z"/></g>
<g><path style="opacity:1" fill="#696d73" d="M 202.5,274.5 C 203.918,278.287 204.918,282.287 205.5,286.5C 204.833,286.5 204.167,286.5 203.5,286.5C 202.979,282.519 202.646,278.519 202.5,274.5 Z"/></g>
<g><path style="opacity:1" fill="#afb2b6" d="M 203.5,286.5 C 204.167,286.5 204.833,286.5 205.5,286.5C 205.894,293.496 206.227,300.496 206.5,307.5C 205.146,300.641 204.146,293.641 203.5,286.5 Z"/></g>
<g><path style="opacity:1" fill="#8c9094" d="M 218.5,291.5 C 216.735,292.461 214.735,292.795 212.5,292.5C 212.823,299.022 212.49,305.355 211.5,311.5C 211.5,304.833 211.5,298.167 211.5,291.5C 213.833,291.5 216.167,291.5 218.5,291.5 Z"/></g>
</svg>
