<?xml version="1.0" encoding="UTF-8"?>
<!DOCTYPE svg PUBLIC "-//W3C//DTD SVG 1.1//EN" "http://www.w3.org/Graphics/SVG/1.1/DTD/svg11.dtd">
<svg xmlns="http://www.w3.org/2000/svg" version="1.1" width="1024px" height="1024px" style="shape-rendering:geometricPrecision; text-rendering:geometricPrecision; image-rendering:optimizeQuality; fill-rule:evenodd; clip-rule:evenodd" xmlns:xlink="http://www.w3.org/1999/xlink">
<g><path style="opacity:1" fill="#fdfdfd" d="M 469.5,140.5 C 493.778,174.556 498.278,211.223 483,250.5C 479.196,258.978 474.529,266.978 469,274.5C 462.794,281.369 456.627,288.203 450.5,295C 454.993,304.466 458.493,314.3 461,324.5C 461.931,330.127 462.431,335.794 462.5,341.5C 461.783,353.735 460.45,365.902 458.5,378C 457.663,383.193 459.663,386.359 464.5,387.5C 492.185,387.691 519.851,388.524 547.5,390C 574.52,394.869 592.854,410.035 602.5,435.5C 609.981,468.219 601.314,495.719 576.5,518C 577.793,518.49 579.127,518.657 580.5,518.5C 581.833,518.5 583.167,518.5 584.5,518.5C 589.944,519.108 594.944,518.442 599.5,516.5C 615.061,517.683 630.561,517.683 646,516.5C 633.931,451.548 639.265,388.215 662,326.5C 672.7,302.76 687.533,281.927 706.5,264C 741.578,236.938 779.578,232.271 820.5,250C 825.415,252.575 830.081,255.575 834.5,259C 843.172,259.808 851.839,260.641 860.5,261.5C 862.189,261.274 863.855,260.941 865.5,260.5C 877.474,261.294 889.474,261.794 901.5,262C 909.327,262.432 916.994,263.766 924.5,266C 931.446,268.806 938.112,272.139 944.5,276C 947.039,278.37 949.372,280.87 951.5,283.5C 969.23,304.574 975.397,328.907 970,356.5C 969.667,364.162 967.334,371.162 963,377.5C 956.542,451.621 949.042,525.621 940.5,599.5C 937.855,612.672 931.522,623.838 921.5,633C 910.649,641.555 898.316,644.722 884.5,642.5C 884.5,643.5 884.5,644.5 884.5,645.5C 871.532,677.084 853.698,705.751 831,731.5C 823.322,738.844 815.322,745.844 807,752.5C 806.22,754.387 806.387,756.054 807.5,757.5C 809.718,772.139 811.718,786.806 813.5,801.5C 813.669,806.181 814.002,810.848 814.5,815.5C 813.178,815.67 812.011,815.337 811,814.5C 810.667,811.5 810.333,808.5 810,805.5C 808.41,807.65 807.743,809.983 808,812.5C 808.333,812.167 808.667,811.833 809,811.5C 809.996,815.431 810.496,819.431 810.5,823.5C 810.064,831.74 809.064,839.907 807.5,848C 808.124,853.302 808.124,858.302 807.5,863C 808.744,863.456 809.577,862.956 810,861.5C 810.49,862.793 810.657,864.127 810.5,865.5C 804.698,874.404 796.698,880.404 786.5,883.5C 713.862,884.657 641.195,884.824 568.5,884C 564.417,883.47 560.417,882.637 556.5,881.5C 555.508,881.672 554.842,881.338 554.5,880.5C 550.839,877.84 547.172,875.174 543.5,872.5C 532.92,862.597 527.92,850.263 528.5,835.5C 530.752,812.735 533.752,790.068 537.5,767.5C 537.281,766.062 536.781,764.729 536,763.5C 526.718,757.384 518.551,750.05 511.5,741.5C 511.262,739.596 510.262,738.262 508.5,737.5C 507.599,736.71 506.932,735.71 506.5,734.5C 506.205,732.577 505.372,730.91 504,729.5C 503.503,731.81 503.337,734.143 503.5,736.5C 503.5,736.833 503.5,737.167 503.5,737.5C 499.266,762.63 495.433,787.963 492,813.5C 490.205,824.682 487.038,835.348 482.5,845.5C 469.494,868.494 449.828,881.494 423.5,884.5C 415.833,884.5 408.167,884.5 400.5,884.5C 400.167,884.5 399.833,884.5 399.5,884.5C 395.004,882.873 390.337,881.54 385.5,880.5C 382.485,878.326 379.151,876.659 375.5,875.5C 373.596,875.262 372.262,874.262 371.5,872.5C 371.027,871.094 370.027,870.427 368.5,870.5C 367.738,868.738 366.404,867.738 364.5,867.5C 345.464,850.413 337.298,829.08 340,803.5C 344.798,770.142 349.632,736.808 354.5,703.5C 354.631,702.624 354.298,701.957 353.5,701.5C 339.152,707.84 324.486,713.34 309.5,718C 277.627,726.68 245.627,734.847 213.5,742.5C 199.738,745.992 185.738,747.325 171.5,746.5C 130.131,737.802 107.464,712.469 103.5,670.5C 106.064,643.54 118.731,622.707 141.5,608C 154.411,602.215 167.745,597.548 181.5,594C 196.481,590.892 211.481,587.892 226.5,585C 230.575,583.917 234.575,582.584 238.5,581C 240.443,565.04 242.443,549.04 244.5,533C 244.175,529.504 242.509,528.671 239.5,530.5C 230.833,530.5 222.167,530.5 213.5,530.5C 186.637,526.473 166.804,512.473 154,488.5C 149.789,478.778 147.622,468.611 147.5,458C 148.493,442.775 149.993,427.609 152,412.5C 157.172,391.02 161.839,369.353 166,347.5C 173.324,327.694 186.157,312.527 204.5,302C 211.621,298.852 218.621,295.519 225.5,292C 245.817,283.996 266.151,276.329 286.5,269C 287.167,268 287.833,267 288.5,266C 266.164,227.513 265.998,189.013 288,150.5C 308.77,117.441 338.77,99.7741 378,97.5C 404.689,97.8739 428.856,105.707 450.5,121C 458.043,126.375 464.376,132.875 469.5,140.5 Z M 492.5,532.5 C 494.735,532.205 496.735,532.539 498.5,533.5C 492.406,537.076 486.406,540.909 480.5,545C 473.082,552.664 466.249,560.831 460,569.5C 459.667,571.167 459.333,572.833 459,574.5C 458.014,575.171 456.847,575.171 455.5,574.5C 455.649,573.448 455.483,572.448 455,571.5C 452.089,568.01 449.422,564.344 447,560.5C 444.917,558.244 442.75,556.244 440.5,554.5C 440.573,552.973 439.906,551.973 438.5,551.5C 436.02,547.891 433.52,544.224 431,540.5C 430.242,538.231 430.409,536.064 431.5,534C 450.205,534.484 468.871,534.65 487.5,534.5C 489.336,533.972 491.003,533.306 492.5,532.5 Z"/></g>
<g><path style="opacity:1" fill="#020202" d="M 373.5,136.5 C 403.841,134.253 427.008,145.92 443,171.5C 456.572,200.156 453.906,227.156 435,252.5C 414.688,273.601 390.188,280.767 361.5,274C 322.919,258.351 307.085,229.851 314,188.5C 323.499,159.158 343.332,141.825 373.5,136.5 Z"/></g>
<g><path style="opacity:0.809" fill="#737373" d="M 469.5,140.5 C 471.129,141.625 472.629,142.959 474,144.5C 489.29,166.148 496.623,189.481 496,214.5C 495.667,212.167 495.333,209.833 495,207.5C 494.667,213.833 494.333,220.167 494,226.5C 493.667,225.833 493.333,225.167 493,224.5C 492.013,227.697 492.513,230.53 494.5,233C 490.031,249.739 482.864,265.239 473,279.5C 466.385,286.464 459.218,291.964 451.5,296C 458.247,305.52 462.581,316.187 464.5,328C 464.328,338.964 464.328,349.964 464.5,361C 462.874,367.371 462.04,373.871 462,380.5C 461.5,381 461,381.5 460.5,382C 461.488,384.167 462.821,386 464.5,387.5C 459.663,386.359 457.663,383.193 458.5,378C 460.45,365.902 461.783,353.735 462.5,341.5C 462.431,335.794 461.931,330.127 461,324.5C 458.493,314.3 454.993,304.466 450.5,295C 456.627,288.203 462.794,281.369 469,274.5C 474.529,266.978 479.196,258.978 483,250.5C 498.278,211.223 493.778,174.556 469.5,140.5 Z"/></g>
<g><path style="opacity:1" fill="#050505" d="M 761.5,277.5 C 783.685,274.608 801.685,281.775 815.5,299C 844.833,299.333 874.167,299.667 903.5,300C 920.335,303.167 930.002,313.167 932.5,330C 931.896,337.159 931.396,344.326 931,351.5C 930.164,357.507 927.497,362.507 923,366.5C 916.665,440.513 909.999,514.513 903,588.5C 901.747,594.09 898.581,598.257 893.5,601C 880.258,601.176 867.092,601.676 854,602.5C 846.895,637.709 831.562,668.709 808,695.5C 794.819,710.358 780.152,723.358 764,734.5C 768.83,767.439 773.663,800.439 778.5,833.5C 778.618,837.321 777.285,840.487 774.5,843C 707.582,844.66 640.582,844.993 573.5,844C 571.333,843.167 569.833,841.667 569,839.5C 568.333,834.833 568.333,830.167 569,825.5C 573.5,799.833 578,774.167 582.5,748.5C 582.167,747.5 581.833,746.5 581.5,745.5C 530.961,717.069 503.794,673.736 500,615.5C 487.776,596.899 491.61,582.399 511.5,572C 525.111,567.097 539.111,563.764 553.5,562C 604.413,555.837 655.246,556.004 706,562.5C 699.588,548.643 693.922,534.31 689,519.5C 680.932,485.962 678.266,451.962 681,417.5C 683.205,386.345 690.872,356.678 704,328.5C 714.118,308.384 728.951,292.884 748.5,282C 752.893,280.329 757.226,278.829 761.5,277.5 Z"/></g>
<g><path style="opacity:1" fill="#020202" d="M 343.5,290.5 C 361.265,290.062 378.598,292.562 395.5,298C 414.006,307.508 422.173,322.675 420,343.5C 408.88,408.218 397.547,472.885 386,537.5C 385.333,541.167 385.333,544.833 386,548.5C 413,585.5 440,622.5 467,659.5C 470.248,667.192 471.248,675.192 470,683.5C 462.906,728.822 455.906,774.156 449,819.5C 442.242,839.236 428.409,848.069 407.5,846C 391.806,841.814 382.64,831.648 380,815.5C 379.784,807.45 380.451,799.45 382,791.5C 387.35,757.438 393.016,723.438 399,689.5C 399.667,686.167 399.667,682.833 399,679.5C 364.333,634.167 329.667,588.833 295,543.5C 286.087,531.614 282.754,518.281 285,503.5C 292.008,460.449 299.342,417.449 307,374.5C 316.426,370.204 325.926,366.038 335.5,362C 312.223,368.704 289.223,376.537 266.5,385.5C 260.708,412.678 255.541,440.012 251,467.5C 244.241,487.633 230.408,495.467 209.5,491C 192.883,483.034 185.717,469.867 188,451.5C 193.426,421.855 198.759,392.189 204,362.5C 208.252,348.58 217.085,338.746 230.5,333C 268.127,318.516 305.793,304.35 343.5,290.5 Z"/></g>
<g><path style="opacity:1" fill="#fefefe" d="M 764.5,299.5 C 778.847,298.258 790.014,303.591 798,315.5C 808.332,334.153 814.332,354.153 816,375.5C 820.262,427.423 812.595,477.423 793,525.5C 787.115,539.789 777.615,550.955 764.5,559C 750.225,563.89 738.058,560.723 728,549.5C 716.854,533.864 709.521,516.531 706,497.5C 697.45,449.964 700.616,403.298 715.5,357.5C 719.503,366.801 725.003,367.801 732,360.5C 733.611,351.782 730.111,347.949 721.5,349C 720.069,349.465 718.903,350.299 718,351.5C 724.049,333.92 734.216,319.086 748.5,307C 753.603,303.809 758.936,301.309 764.5,299.5 Z"/></g>
<g><path style="opacity:1" fill="#5f5f5f" d="M 951.5,283.5 C 954.056,284.543 956.223,286.21 958,288.5C 973.204,311.709 977.871,337.042 972,364.5C 969.971,370.615 967.637,376.615 965,382.5C 960.667,429.831 956.334,477.164 952,524.5C 949.306,551.325 945.806,577.992 941.5,604.5C 940.549,603.081 940.216,601.415 940.5,599.5C 949.042,525.621 956.542,451.621 963,377.5C 967.334,371.162 969.667,364.162 970,356.5C 975.397,328.907 969.23,304.574 951.5,283.5 Z"/></g>
<g><path style="opacity:1" fill="#f5f5f5" d="M 909.5,329.5 C 905.167,329.5 900.833,329.5 896.5,329.5C 895.902,334.813 895.569,340.146 895.5,345.5C 874.489,345.833 853.489,345.5 832.5,344.5C 830.566,337.033 828.233,329.699 825.5,322.5C 850.827,321.334 876.16,321.167 901.5,322C 905.977,322.646 908.644,325.146 909.5,329.5 Z"/></g>
<g><path style="opacity:1" fill="#c4c4c4" d="M 909.5,329.5 C 909.5,334.833 909.5,340.167 909.5,345.5C 904.833,345.5 900.167,345.5 895.5,345.5C 895.569,340.146 895.902,334.813 896.5,329.5C 900.833,329.5 905.167,329.5 909.5,329.5 Z"/></g>
<g><path style="opacity:1" fill="#0d0d0d" d="M 798.5,349.5 C 807.108,348.276 810.941,351.943 810,360.5C 806.086,367.096 801.086,368.096 795,363.5C 792.236,357.691 793.403,353.025 798.5,349.5 Z"/></g>
<g><path style="opacity:1" fill="#f5f5f5" d="M 885.5,368.5 C 879.665,428.518 873.832,488.518 868,548.5C 865.559,558.212 863.059,567.879 860.5,577.5C 835.831,577.667 811.164,577.5 786.5,577C 808.51,548.016 823.01,515.516 830,479.5C 837.222,442.79 839.388,405.79 836.5,368.5C 852.833,368.5 869.167,368.5 885.5,368.5 Z"/></g>
<g><path style="opacity:1" fill="#040404" d="M 421.5,398.5 C 429.178,407.998 436.511,417.831 443.5,428C 475.833,428.333 508.167,428.667 540.5,429C 559.575,434.307 567.742,446.807 565,466.5C 561.719,480.782 552.885,489.282 538.5,492C 494.496,492.833 450.496,492.667 406.5,491.5C 411.907,460.586 416.907,429.586 421.5,398.5 Z"/></g>
<g><path style="opacity:1" fill="#c1c1c1" d="M 885.5,368.5 C 890.167,368.5 894.833,368.5 899.5,368.5C 894.227,438.231 888.227,507.897 881.5,577.5C 874.5,577.5 867.5,577.5 860.5,577.5C 863.059,567.879 865.559,558.212 868,548.5C 873.832,488.518 879.665,428.518 885.5,368.5 Z"/></g>
<g><path style="opacity:1" fill="#858585" d="M 602.5,435.5 C 610.411,458.07 608.244,479.737 596,500.5C 591.342,506.987 586.176,512.987 580.5,518.5C 579.127,518.657 577.793,518.49 576.5,518C 601.314,495.719 609.981,468.219 602.5,435.5 Z"/></g>
<g><path style="opacity:1" fill="#9a9a9a" d="M 599.5,516.5 C 594.944,518.442 589.944,519.108 584.5,518.5C 584.611,517.883 584.944,517.383 585.5,517C 590.155,516.501 594.821,516.334 599.5,516.5 Z"/></g>
<g><path style="opacity:1" fill="#c7c7c7" d="M 213.5,530.5 C 222.167,530.5 230.833,530.5 239.5,530.5C 230.842,533.035 222.175,533.035 213.5,530.5 Z"/></g>
<g><path style="opacity:1" fill="#d1d1d1" d="M 433.5,531.5 C 455.51,531.167 477.51,531.5 499.5,532.5C 499.376,533.107 499.043,533.44 498.5,533.5C 496.735,532.539 494.735,532.205 492.5,532.5C 472.66,532.83 452.993,532.497 433.5,531.5 Z"/></g>
<g><path style="opacity:1" fill="#767676" d="M 440.5,537.5 C 448.333,537.962 448.333,538.962 440.5,540.5C 440.5,539.5 440.5,538.5 440.5,537.5 Z"/></g>
<g><path style="opacity:1" fill="#7e7e7e" d="M 433.5,531.5 C 452.993,532.497 472.66,532.83 492.5,532.5C 491.003,533.306 489.336,533.972 487.5,534.5C 468.871,534.65 450.205,534.484 431.5,534C 430.409,536.064 430.242,538.231 431,540.5C 433.52,544.224 436.02,547.891 438.5,551.5C 431.415,546.663 428.082,539.997 428.5,531.5C 430.167,531.5 431.833,531.5 433.5,531.5 Z"/></g>
<g><path style="opacity:1" fill="#030303" d="M 284.5,553.5 C 287.41,555.239 289.91,557.572 292,560.5C 308.719,582.218 325.052,604.218 341,626.5C 342.03,653.632 329.53,670.799 303.5,678C 266.918,687.645 230.252,696.979 193.5,706C 169.106,711.891 152.94,703.058 145,679.5C 142.499,661.331 149.332,648.164 165.5,640C 201.646,630.38 237.979,621.547 274.5,613.5C 277.618,593.46 280.951,573.46 284.5,553.5 Z"/></g>
<g><path style="opacity:1" fill="#848484" d="M 440.5,554.5 C 442.75,556.244 444.917,558.244 447,560.5C 449.422,564.344 452.089,568.01 455,571.5C 455.483,572.448 455.649,573.448 455.5,574.5C 450.025,568.229 445.025,561.563 440.5,554.5 Z"/></g>
<g><path style="opacity:1" fill="#ececec" d="M 698.5,609.5 C 697.68,603.903 697.014,598.569 696.5,593.5C 713.816,592.185 730.816,589.018 747.5,584C 752.833,583.333 758.167,583.333 763.5,584C 766.995,584.997 769.328,587.164 770.5,590.5C 770.124,592.383 769.124,593.883 767.5,595C 762.167,597 756.833,599 751.5,601C 733.962,604.733 716.296,607.567 698.5,609.5 Z"/></g>
<g><path style="opacity:1" fill="#fafafa" d="M 696.5,593.5 C 697.014,598.569 697.68,603.903 698.5,609.5C 652.829,613.667 607.162,613.5 561.5,609C 546.937,607.859 532.937,604.526 519.5,599C 515.271,595.157 515.605,591.823 520.5,589C 523.136,588.066 525.803,587.232 528.5,586.5C 551.802,592.233 575.469,595.4 599.5,596C 631.888,596.872 664.222,596.039 696.5,593.5 Z"/></g>
<g><path style="opacity:1" fill="#cbcbcb" d="M 706.5,736.5 C 705.472,735.926 704.472,735.593 703.5,735.5C 704.981,734.52 706.315,733.353 707.5,732C 706.216,731.316 705.049,731.483 704,732.5C 704.43,730.873 704.596,729.373 704.5,728C 705.744,727.544 706.577,728.044 707,729.5C 707.388,728.572 708.055,727.905 709,727.5C 710.235,728.615 711.402,728.615 712.5,727.5C 713.192,728.025 713.692,728.692 714,729.5C 715.396,727.473 717.062,727.14 719,728.5C 719.27,725.776 719.77,723.109 720.5,720.5C 719.311,719.571 717.978,719.238 716.5,719.5C 716.5,714.167 716.5,708.833 716.5,703.5C 717.5,703.5 718.5,703.5 719.5,703.5C 719.5,700.833 719.5,698.167 719.5,695.5C 722.167,695.5 724.833,695.5 727.5,695.5C 727.5,690.167 727.5,684.833 727.5,679.5C 730.167,679.5 732.833,679.5 735.5,679.5C 735.5,677.833 735.5,676.167 735.5,674.5C 738.167,674.5 740.833,674.5 743.5,674.5C 743.5,673.5 743.5,672.5 743.5,671.5C 746.167,671.5 748.833,671.5 751.5,671.5C 751.5,666.167 751.5,660.833 751.5,655.5C 750.5,655.5 749.5,655.5 748.5,655.5C 748.5,652.833 748.5,650.167 748.5,647.5C 752.167,647.5 755.833,647.5 759.5,647.5C 759.5,644.833 759.5,642.167 759.5,639.5C 758.5,639.5 757.5,639.5 756.5,639.5C 756.5,636.833 756.5,634.167 756.5,631.5C 758.167,631.5 759.833,631.5 761.5,631.5C 761.342,628.455 762.009,625.621 763.5,623C 763.272,622.601 762.938,622.435 762.5,622.5C 769.411,619.72 776.411,616.887 783.5,614C 788.833,611.333 792.833,607.333 795.5,602C 807.514,601.167 819.514,601.334 831.5,602.5C 817.405,653.552 787.738,692.718 742.5,720C 730.837,726.333 718.837,731.833 706.5,736.5 Z"/></g>
<g><path style="opacity:1" fill="#d1d1d1" d="M 762.5,622.5 C 762.938,622.435 763.272,622.601 763.5,623C 762.009,625.621 761.342,628.455 761.5,631.5C 759.833,631.5 758.167,631.5 756.5,631.5C 756.5,634.167 756.5,636.833 756.5,639.5C 757.5,639.5 758.5,639.5 759.5,639.5C 759.5,642.167 759.5,644.833 759.5,647.5C 755.833,647.5 752.167,647.5 748.5,647.5C 748.5,650.167 748.5,652.833 748.5,655.5C 749.5,655.5 750.5,655.5 751.5,655.5C 751.5,660.833 751.5,666.167 751.5,671.5C 748.833,671.5 746.167,671.5 743.5,671.5C 743.5,672.5 743.5,673.5 743.5,674.5C 740.833,674.5 738.167,674.5 735.5,674.5C 735.5,676.167 735.5,677.833 735.5,679.5C 732.833,679.5 730.167,679.5 727.5,679.5C 727.5,684.833 727.5,690.167 727.5,695.5C 724.833,695.5 722.167,695.5 719.5,695.5C 719.5,698.167 719.5,700.833 719.5,703.5C 718.5,703.5 717.5,703.5 716.5,703.5C 716.5,708.833 716.5,714.167 716.5,719.5C 717.978,719.238 719.311,719.571 720.5,720.5C 719.77,723.109 719.27,725.776 719,728.5C 717.062,727.14 715.396,727.473 714,729.5C 713.692,728.692 713.192,728.025 712.5,727.5C 711.402,728.615 710.235,728.615 709,727.5C 708.055,727.905 707.388,728.572 707,729.5C 706.577,728.044 705.744,727.544 704.5,728C 704.596,729.373 704.43,730.873 704,732.5C 705.049,731.483 706.216,731.316 707.5,732C 706.315,733.353 704.981,734.52 703.5,735.5C 704.472,735.593 705.472,735.926 706.5,736.5C 700.115,739.129 693.615,741.462 687,743.5C 688.131,748.718 688.965,754.051 689.5,759.5C 689.5,760.833 689.5,762.167 689.5,763.5C 682.221,756 673.887,749.666 664.5,744.5C 656.128,741.432 647.794,738.265 639.5,735C 658.933,726.08 674.6,712.58 686.5,694.5C 688.796,688.817 691.629,683.483 695,678.5C 696.355,672.1 698.688,666.1 702,660.5C 704.115,652.219 704.948,643.885 704.5,635.5C 701.724,633.87 698.724,633.203 695.5,633.5C 717.896,630.823 740.229,627.156 762.5,622.5 Z"/></g>
<g><path style="opacity:1" fill="#fcfcfc" d="M 695.5,633.5 C 698.724,633.203 701.724,633.87 704.5,635.5C 704.948,643.885 704.115,652.219 702,660.5C 698.688,666.1 696.355,672.1 695,678.5C 691.629,683.483 688.796,688.817 686.5,694.5C 674.6,712.58 658.933,726.08 639.5,735C 647.794,738.265 656.128,741.432 664.5,744.5C 673.887,749.666 682.221,756 689.5,763.5C 689.167,766.5 690.5,767.833 693.5,767.5C 695.171,777.912 698.004,787.912 702,797.5C 703.363,805.146 704.53,812.813 705.5,820.5C 667.833,820.5 630.167,820.5 592.5,820.5C 596.919,791.904 601.919,763.404 607.5,735C 607.167,734.167 606.833,733.333 606.5,732.5C 559.675,712.191 532.009,676.857 523.5,626.5C 543.256,630.95 563.256,633.784 583.5,635C 620.87,636.012 658.204,635.512 695.5,633.5 Z"/></g>
<g><path style="opacity:1" fill="#737373" d="M 940.5,599.5 C 940.216,601.415 940.549,603.081 941.5,604.5C 934.693,630.981 917.693,644.981 890.5,646.5C 890.414,645.504 890.748,644.671 891.5,644C 888.802,643.185 886.468,643.685 884.5,645.5C 884.5,644.5 884.5,643.5 884.5,642.5C 898.316,644.722 910.649,641.555 921.5,633C 931.522,623.838 937.855,612.672 940.5,599.5 Z"/></g>
<g><path style="opacity:0.804" fill="#575757" d="M 890.5,646.5 C 888.742,648.141 887.242,650.141 886,652.5C 880.669,664.779 875.002,676.779 869,688.5C 862.844,695.547 857.844,702.88 854,710.5C 848.303,717.525 842.637,724.525 837,731.5C 829.779,738.721 822.613,745.887 815.5,753C 813.512,753.938 811.512,754.772 809.5,755.5C 809.631,754.624 809.298,753.957 808.5,753.5C 807.571,754.689 807.238,756.022 807.5,757.5C 806.387,756.054 806.22,754.387 807,752.5C 815.322,745.844 823.322,738.844 831,731.5C 853.698,705.751 871.532,677.084 884.5,645.5C 886.468,643.685 888.802,643.185 891.5,644C 890.748,644.671 890.414,645.504 890.5,646.5 Z"/></g>
<g><path style="opacity:1" fill="#828282" d="M 354.5,703.5 C 342.267,709.235 329.6,714.069 316.5,718C 281.845,727.029 247.179,735.862 212.5,744.5C 212.833,743.833 213.167,743.167 213.5,742.5C 245.627,734.847 277.627,726.68 309.5,718C 324.486,713.34 339.152,707.84 353.5,701.5C 354.298,701.957 354.631,702.624 354.5,703.5 Z"/></g>
<g><path style="opacity:1" fill="#6b6b6b" d="M 506.5,734.5 C 505.222,734.782 504.222,735.449 503.5,736.5C 503.337,734.143 503.503,731.81 504,729.5C 505.372,730.91 506.205,732.577 506.5,734.5 Z"/></g>
<g><path style="opacity:1" fill="#6b6b6b" d="M 508.5,737.5 C 510.262,738.262 511.262,739.596 511.5,741.5C 509.738,740.738 508.738,739.404 508.5,737.5 Z"/></g>
<g><path style="opacity:1" fill="#afafaf" d="M 213.5,742.5 C 213.167,743.167 212.833,743.833 212.5,744.5C 198.813,747.406 185.146,748.073 171.5,746.5C 185.738,747.325 199.738,745.992 213.5,742.5 Z"/></g>
<g><path style="opacity:1" fill="#c3c3c3" d="M 705.5,820.5 C 704.53,812.813 703.363,805.146 702,797.5C 698.004,787.912 695.171,777.912 693.5,767.5C 690.5,767.833 689.167,766.5 689.5,763.5C 689.5,762.167 689.5,760.833 689.5,759.5C 690.868,761.564 691.868,763.898 692.5,766.5C 709.657,760.586 726.324,753.586 742.5,745.5C 746.968,770.38 750.635,795.38 753.5,820.5C 737.5,820.5 721.5,820.5 705.5,820.5 Z"/></g>
<g><path style="opacity:0.051" fill="#3d3d3d" d="M 814.5,774.5 C 815.573,775.251 815.74,776.251 815,777.5C 814.517,776.552 814.351,775.552 814.5,774.5 Z"/></g>
<g><path style="opacity:1" fill="#6d6d6d" d="M 503.5,737.5 C 504.097,737.735 504.43,738.235 504.5,739C 501.042,762.116 497.876,785.283 495,808.5C 493.113,820.445 490.28,832.111 486.5,843.5C 485.883,843.389 485.383,843.056 485,842.5C 484.623,843.942 483.79,844.942 482.5,845.5C 487.038,835.348 490.205,824.682 492,813.5C 495.433,787.963 499.266,762.63 503.5,737.5 Z"/></g>
<g><path style="opacity:1" fill="#efefef" d="M 813.5,801.5 C 816.925,815.496 818.591,829.829 818.5,844.5C 817.791,852.407 815.124,859.407 810.5,865.5C 810.657,864.127 810.49,862.793 810,861.5C 809.577,862.956 808.744,863.456 807.5,863C 808.124,858.302 808.124,853.302 807.5,848C 809.064,839.907 810.064,831.74 810.5,823.5C 810.496,819.431 809.996,815.431 809,811.5C 808.667,811.833 808.333,812.167 808,812.5C 807.743,809.983 808.41,807.65 810,805.5C 810.333,808.5 810.667,811.5 811,814.5C 812.011,815.337 813.178,815.67 814.5,815.5C 814.002,810.848 813.669,806.181 813.5,801.5 Z"/></g>
<g><path style="opacity:0.359" fill="#404040" d="M 809.5,755.5 C 811.878,763.554 813.045,771.887 813,780.5C 815.99,789.155 817.323,798.155 817,807.5C 817.667,808.833 818.333,808.833 819,807.5C 820.193,819.136 820.693,830.803 820.5,842.5C 819.833,843.167 819.167,843.833 818.5,844.5C 818.591,829.829 816.925,815.496 813.5,801.5C 811.718,786.806 809.718,772.139 807.5,757.5C 807.238,756.022 807.571,754.689 808.5,753.5C 809.298,753.957 809.631,754.624 809.5,755.5 Z"/></g>
<g><path style="opacity:0.655" fill="#181818" d="M 820.5,842.5 C 820.666,847.511 820.499,852.511 820,857.5C 814.533,869.299 806.033,878.132 794.5,884C 791.832,884.567 789.166,885.067 786.5,885.5C 786.5,884.833 786.5,884.167 786.5,883.5C 796.698,880.404 804.698,874.404 810.5,865.5C 815.124,859.407 817.791,852.407 818.5,844.5C 819.167,843.833 819.833,843.167 820.5,842.5 Z"/></g>
<g><path style="opacity:0.53" fill="#1a1a1a" d="M 486.5,843.5 C 475.622,868.966 456.289,883.299 428.5,886.5C 426.833,885.833 425.167,885.167 423.5,884.5C 449.828,881.494 469.494,868.494 482.5,845.5C 483.79,844.942 484.623,843.942 485,842.5C 485.383,843.056 485.883,843.389 486.5,843.5 Z"/></g>
<g><path style="opacity:1" fill="#757575" d="M 364.5,867.5 C 366.404,867.738 367.738,868.738 368.5,870.5C 366.596,870.262 365.262,869.262 364.5,867.5 Z"/></g>
<g><path style="opacity:1" fill="#707070" d="M 368.5,870.5 C 370.027,870.427 371.027,871.094 371.5,872.5C 369.973,872.573 368.973,871.906 368.5,870.5 Z"/></g>
<g><path style="opacity:1" fill="#5c5c5c" d="M 543.5,872.5 C 547.172,875.174 550.839,877.84 554.5,880.5C 549.738,879.414 546.072,876.747 543.5,872.5 Z"/></g>
<g><path style="opacity:1" fill="#525252" d="M 375.5,875.5 C 379.151,876.659 382.485,878.326 385.5,880.5C 381.58,879.873 378.247,878.207 375.5,875.5 Z"/></g>
<g><path style="opacity:1" fill="#454545" d="M 385.5,880.5 C 390.337,881.54 395.004,882.873 399.5,884.5C 394.378,884.39 389.712,883.056 385.5,880.5 Z"/></g>
<g><path style="opacity:1" fill="#2f2f2f" d="M 556.5,881.5 C 560.417,882.637 564.417,883.47 568.5,884C 641.195,884.824 713.862,884.657 786.5,883.5C 786.5,884.167 786.5,884.833 786.5,885.5C 724.778,885.548 662.945,885.881 601,886.5C 587.743,886.835 574.577,886.002 561.5,884C 559.509,883.626 557.842,882.793 556.5,881.5 Z"/></g>
<g><path style="opacity:1" fill="#515151" d="M 400.5,884.5 C 408.167,884.5 415.833,884.5 423.5,884.5C 425.167,885.167 426.833,885.833 428.5,886.5C 425.468,886.505 422.468,886.838 419.5,887.5C 412.925,887.102 406.592,886.102 400.5,884.5 Z"/></g>
</svg>
